<mxfile host="app.diagrams.net" agent="Mozilla/5.0 (Windows NT 10.0; Win64; x64) AppleWebKit/537.36 (KHTML, like Gecko) Chrome/131.0.0.0 Safari/537.36" version="25.0.3">
  <diagram name="หน้า-1" id="UoIooV_oLJza29MHpOdD">
    <mxGraphModel dx="1034" dy="446" grid="1" gridSize="10" guides="1" tooltips="1" connect="1" arrows="1" fold="1" page="1" pageScale="1" pageWidth="827" pageHeight="1169" math="0" shadow="0">
      <root>
        <mxCell id="0" />
        <mxCell id="1" parent="0" />
        <mxCell id="FDxXRxcwV4oL9mjqtC_j-3" value="" style="edgeStyle=orthogonalEdgeStyle;rounded=0;orthogonalLoop=1;jettySize=auto;html=1;" edge="1" parent="1" source="FDxXRxcwV4oL9mjqtC_j-1" target="FDxXRxcwV4oL9mjqtC_j-2">
          <mxGeometry relative="1" as="geometry" />
        </mxCell>
        <mxCell id="FDxXRxcwV4oL9mjqtC_j-1" value="start" style="strokeWidth=2;html=1;shape=mxgraph.flowchart.start_1;whiteSpace=wrap;" vertex="1" parent="1">
          <mxGeometry x="360" y="100" width="100" height="60" as="geometry" />
        </mxCell>
        <mxCell id="FDxXRxcwV4oL9mjqtC_j-5" value="" style="edgeStyle=orthogonalEdgeStyle;rounded=0;orthogonalLoop=1;jettySize=auto;html=1;" edge="1" parent="1" source="FDxXRxcwV4oL9mjqtC_j-2" target="FDxXRxcwV4oL9mjqtC_j-4">
          <mxGeometry relative="1" as="geometry" />
        </mxCell>
        <mxCell id="FDxXRxcwV4oL9mjqtC_j-2" value="กำหนดตัวแปร&amp;nbsp;&lt;div&gt;int start, end&lt;/div&gt;" style="whiteSpace=wrap;html=1;strokeWidth=2;" vertex="1" parent="1">
          <mxGeometry x="350" y="240" width="120" height="60" as="geometry" />
        </mxCell>
        <mxCell id="FDxXRxcwV4oL9mjqtC_j-7" value="" style="edgeStyle=orthogonalEdgeStyle;rounded=0;orthogonalLoop=1;jettySize=auto;html=1;" edge="1" parent="1" source="FDxXRxcwV4oL9mjqtC_j-4" target="FDxXRxcwV4oL9mjqtC_j-6">
          <mxGeometry relative="1" as="geometry" />
        </mxCell>
        <mxCell id="FDxXRxcwV4oL9mjqtC_j-4" value="แสดงคำว่า Start :" style="shape=parallelogram;perimeter=parallelogramPerimeter;whiteSpace=wrap;html=1;fixedSize=1;strokeWidth=2;" vertex="1" parent="1">
          <mxGeometry x="350" y="380" width="120" height="60" as="geometry" />
        </mxCell>
        <mxCell id="FDxXRxcwV4oL9mjqtC_j-9" value="" style="edgeStyle=orthogonalEdgeStyle;rounded=0;orthogonalLoop=1;jettySize=auto;html=1;" edge="1" parent="1" source="FDxXRxcwV4oL9mjqtC_j-6" target="FDxXRxcwV4oL9mjqtC_j-8">
          <mxGeometry relative="1" as="geometry" />
        </mxCell>
        <mxCell id="FDxXRxcwV4oL9mjqtC_j-6" value="รับค่าจากผู้ใช้" style="shape=parallelogram;perimeter=parallelogramPerimeter;whiteSpace=wrap;html=1;fixedSize=1;strokeWidth=2;" vertex="1" parent="1">
          <mxGeometry x="350" y="520" width="120" height="60" as="geometry" />
        </mxCell>
        <mxCell id="FDxXRxcwV4oL9mjqtC_j-11" value="" style="edgeStyle=orthogonalEdgeStyle;rounded=0;orthogonalLoop=1;jettySize=auto;html=1;" edge="1" parent="1" source="FDxXRxcwV4oL9mjqtC_j-8" target="FDxXRxcwV4oL9mjqtC_j-10">
          <mxGeometry relative="1" as="geometry" />
        </mxCell>
        <mxCell id="FDxXRxcwV4oL9mjqtC_j-8" value="แสดงคำว่า End :" style="shape=parallelogram;perimeter=parallelogramPerimeter;whiteSpace=wrap;html=1;fixedSize=1;strokeWidth=2;" vertex="1" parent="1">
          <mxGeometry x="350" y="630" width="120" height="60" as="geometry" />
        </mxCell>
        <mxCell id="FDxXRxcwV4oL9mjqtC_j-27" value="" style="edgeStyle=orthogonalEdgeStyle;rounded=0;orthogonalLoop=1;jettySize=auto;html=1;" edge="1" parent="1" source="FDxXRxcwV4oL9mjqtC_j-10" target="FDxXRxcwV4oL9mjqtC_j-26">
          <mxGeometry relative="1" as="geometry" />
        </mxCell>
        <mxCell id="FDxXRxcwV4oL9mjqtC_j-10" value="รับค่าจากผู้ใช้" style="shape=parallelogram;perimeter=parallelogramPerimeter;whiteSpace=wrap;html=1;fixedSize=1;strokeWidth=2;" vertex="1" parent="1">
          <mxGeometry x="350" y="750" width="120" height="60" as="geometry" />
        </mxCell>
        <mxCell id="FDxXRxcwV4oL9mjqtC_j-29" value="" style="edgeStyle=orthogonalEdgeStyle;rounded=0;orthogonalLoop=1;jettySize=auto;html=1;" edge="1" parent="1" source="FDxXRxcwV4oL9mjqtC_j-26" target="FDxXRxcwV4oL9mjqtC_j-28">
          <mxGeometry relative="1" as="geometry" />
        </mxCell>
        <mxCell id="FDxXRxcwV4oL9mjqtC_j-48" style="edgeStyle=orthogonalEdgeStyle;rounded=0;orthogonalLoop=1;jettySize=auto;html=1;exitX=0.5;exitY=1;exitDx=0;exitDy=0;" edge="1" parent="1" source="FDxXRxcwV4oL9mjqtC_j-26" target="FDxXRxcwV4oL9mjqtC_j-45">
          <mxGeometry relative="1" as="geometry" />
        </mxCell>
        <mxCell id="FDxXRxcwV4oL9mjqtC_j-26" value="i = start ; i &amp;lt;= end ?" style="rhombus;whiteSpace=wrap;html=1;strokeWidth=2;" vertex="1" parent="1">
          <mxGeometry x="315" y="880" width="190" height="130" as="geometry" />
        </mxCell>
        <mxCell id="FDxXRxcwV4oL9mjqtC_j-32" value="" style="edgeStyle=orthogonalEdgeStyle;rounded=0;orthogonalLoop=1;jettySize=auto;html=1;" edge="1" parent="1" source="FDxXRxcwV4oL9mjqtC_j-28" target="FDxXRxcwV4oL9mjqtC_j-31">
          <mxGeometry relative="1" as="geometry" />
        </mxCell>
        <mxCell id="FDxXRxcwV4oL9mjqtC_j-37" value="" style="edgeStyle=orthogonalEdgeStyle;rounded=0;orthogonalLoop=1;jettySize=auto;html=1;" edge="1" parent="1" source="FDxXRxcwV4oL9mjqtC_j-28" target="FDxXRxcwV4oL9mjqtC_j-36">
          <mxGeometry relative="1" as="geometry" />
        </mxCell>
        <mxCell id="FDxXRxcwV4oL9mjqtC_j-28" value="j = 1 ; j &amp;lt;= 9 ?" style="rhombus;whiteSpace=wrap;html=1;strokeWidth=2;" vertex="1" parent="1">
          <mxGeometry x="585" y="880" width="190" height="130" as="geometry" />
        </mxCell>
        <mxCell id="FDxXRxcwV4oL9mjqtC_j-30" value="T" style="text;html=1;align=center;verticalAlign=middle;resizable=0;points=[];autosize=1;strokeColor=none;fillColor=none;" vertex="1" parent="1">
          <mxGeometry x="505" y="898" width="30" height="30" as="geometry" />
        </mxCell>
        <mxCell id="FDxXRxcwV4oL9mjqtC_j-34" value="" style="edgeStyle=orthogonalEdgeStyle;rounded=0;orthogonalLoop=1;jettySize=auto;html=1;" edge="1" parent="1" source="FDxXRxcwV4oL9mjqtC_j-31" target="FDxXRxcwV4oL9mjqtC_j-33">
          <mxGeometry relative="1" as="geometry" />
        </mxCell>
        <mxCell id="FDxXRxcwV4oL9mjqtC_j-31" value="i * j" style="whiteSpace=wrap;html=1;strokeWidth=2;" vertex="1" parent="1">
          <mxGeometry x="620" y="1125" width="120" height="60" as="geometry" />
        </mxCell>
        <mxCell id="FDxXRxcwV4oL9mjqtC_j-42" value="" style="edgeStyle=orthogonalEdgeStyle;rounded=0;orthogonalLoop=1;jettySize=auto;html=1;" edge="1" parent="1" source="FDxXRxcwV4oL9mjqtC_j-33" target="FDxXRxcwV4oL9mjqtC_j-41">
          <mxGeometry relative="1" as="geometry" />
        </mxCell>
        <mxCell id="FDxXRxcwV4oL9mjqtC_j-33" value="j ++&amp;nbsp;" style="whiteSpace=wrap;html=1;strokeWidth=2;" vertex="1" parent="1">
          <mxGeometry x="620" y="1265" width="120" height="60" as="geometry" />
        </mxCell>
        <mxCell id="FDxXRxcwV4oL9mjqtC_j-35" value="T" style="text;html=1;align=center;verticalAlign=middle;resizable=0;points=[];autosize=1;strokeColor=none;fillColor=none;" vertex="1" parent="1">
          <mxGeometry x="635" y="1008" width="30" height="30" as="geometry" />
        </mxCell>
        <mxCell id="FDxXRxcwV4oL9mjqtC_j-36" value="i ++" style="whiteSpace=wrap;html=1;strokeWidth=2;" vertex="1" parent="1">
          <mxGeometry x="890" y="915" width="120" height="60" as="geometry" />
        </mxCell>
        <mxCell id="FDxXRxcwV4oL9mjqtC_j-39" value="" style="shape=waypoint;sketch=0;fillStyle=solid;size=6;pointerEvents=1;points=[];fillColor=none;resizable=0;rotatable=0;perimeter=centerPerimeter;snapToPoint=1;" vertex="1" parent="1">
          <mxGeometry x="400" y="830" width="20" height="20" as="geometry" />
        </mxCell>
        <mxCell id="FDxXRxcwV4oL9mjqtC_j-40" style="edgeStyle=orthogonalEdgeStyle;rounded=0;orthogonalLoop=1;jettySize=auto;html=1;exitX=0.5;exitY=0;exitDx=0;exitDy=0;entryX=1.15;entryY=0.2;entryDx=0;entryDy=0;entryPerimeter=0;" edge="1" parent="1" source="FDxXRxcwV4oL9mjqtC_j-36" target="FDxXRxcwV4oL9mjqtC_j-39">
          <mxGeometry relative="1" as="geometry">
            <Array as="points">
              <mxPoint x="950" y="840" />
            </Array>
          </mxGeometry>
        </mxCell>
        <mxCell id="FDxXRxcwV4oL9mjqtC_j-41" value="แสดงผลคูณ" style="shape=parallelogram;perimeter=parallelogramPerimeter;whiteSpace=wrap;html=1;fixedSize=1;strokeWidth=2;" vertex="1" parent="1">
          <mxGeometry x="620" y="1405" width="120" height="60" as="geometry" />
        </mxCell>
        <mxCell id="FDxXRxcwV4oL9mjqtC_j-43" value="end" style="strokeWidth=2;html=1;shape=mxgraph.flowchart.start_1;whiteSpace=wrap;" vertex="1" parent="1">
          <mxGeometry x="360" y="1610" width="100" height="60" as="geometry" />
        </mxCell>
        <mxCell id="FDxXRxcwV4oL9mjqtC_j-44" style="edgeStyle=orthogonalEdgeStyle;rounded=0;orthogonalLoop=1;jettySize=auto;html=1;exitX=0.5;exitY=1;exitDx=0;exitDy=0;entryX=0.5;entryY=0;entryDx=0;entryDy=0;entryPerimeter=0;" edge="1" parent="1" source="FDxXRxcwV4oL9mjqtC_j-41" target="FDxXRxcwV4oL9mjqtC_j-43">
          <mxGeometry relative="1" as="geometry" />
        </mxCell>
        <mxCell id="FDxXRxcwV4oL9mjqtC_j-45" value="" style="shape=waypoint;sketch=0;fillStyle=solid;size=6;pointerEvents=1;points=[];fillColor=none;resizable=0;rotatable=0;perimeter=centerPerimeter;snapToPoint=1;" vertex="1" parent="1">
          <mxGeometry x="400" y="1530" width="20" height="20" as="geometry" />
        </mxCell>
      </root>
    </mxGraphModel>
  </diagram>
</mxfile>
